HIERARCHY
ROOT Bip001_Pelvis
{
  OFFSET 34.4345 95.6767 -26.8758
  CHANNELS 6 Xposition Yposition Zposition Zrotation Xrotation Yrotation
  JOINT Bip001_Spine
  {
    OFFSET 1.4188e-005 10.2191 -0.0116013
    CHANNELS 3 Zrotation Xrotation Yrotation
    JOINT Bip001_L_Thigh
    {
      OFFSET 11.0458 -10.2192 0.0116197
      CHANNELS 3 Zrotation Xrotation Yrotation
      JOINT Bip001_L_Calf
      {
        OFFSET -0.707118 -44.0221 0.360014
        CHANNELS 3 Zrotation Xrotation Yrotation
        JOINT Bip001_L_Foot
        {
          OFFSET -0.651902 -40.5938 -3.56146
          CHANNELS 3 Zrotation Xrotation Yrotation
          JOINT Bip001_L_Toe0
          {
            OFFSET 0.0530839 -10.2181 13.1504
            CHANNELS 3 Zrotation Xrotation Yrotation
            End Site
            {
              OFFSET -1.02532e-005 0 7.55606
            }
          }
        }
      }
    }
    JOINT Bip001_R_Thigh
    {
      OFFSET -11.0458 -10.2191 0.0115893
      CHANNELS 3 Zrotation Xrotation Yrotation
      JOINT Bip001_R_Calf
      {
        OFFSET 0.706994 -44.0221 0.35984
        CHANNELS 3 Zrotation Xrotation Yrotation
        JOINT Bip001_R_Foot
        {
          OFFSET 0.651786 -40.5938 -3.5613
          CHANNELS 3 Zrotation Xrotation Yrotation
          JOINT Bip001_R_Toe0
          {
            OFFSET -0.0531479 -10.2181 13.1504
            CHANNELS 3 Zrotation Xrotation Yrotation
            End Site
            {
              OFFSET -1.02894e-005 0 7.55606
            }
          }
        }
      }
    }
    JOINT Bip001_Spine1
    {
      OFFSET 1.87041e-005 14.5736 1.08638
      CHANNELS 3 Zrotation Xrotation Yrotation
      JOINT Bip001_Spine2
      {
        OFFSET 2.24614e-005 14.5058 -1.69078
        CHANNELS 3 Zrotation Xrotation Yrotation
        JOINT Bip001_Neck
        {
          OFFSET 2.20278e-005 15.3945 -0.489414
          CHANNELS 3 Zrotation Xrotation Yrotation
          JOINT Bip001_L_Clavicle
          {
            OFFSET 6.06036 -0.000579998 0.00836775
            CHANNELS 3 Zrotation Xrotation Yrotation
            JOINT Bip001_L_UpperArm
            {
              OFFSET 11.5509 -0.0600302 0.00193952
              CHANNELS 3 Zrotation Xrotation Yrotation
              JOINT Bip001_L_Forearm
              {
                OFFSET 25.9523 0.0806089 -2.15551
                CHANNELS 3 Zrotation Xrotation Yrotation
                JOINT Bip001_L_Hand
                {
                  OFFSET 32.2475 0.153767 1.63968
                  CHANNELS 3 Zrotation Xrotation Yrotation
                  JOINT Bip001_L_Finger0
                  {
                    OFFSET 6.04639 -2.20976 5.90322
                    CHANNELS 3 Zrotation Xrotation Yrotation
                    End Site
                    {
                      OFFSET 4.22375 -1.43895 0.606485
                    }
                  }
                  JOINT Bip001_L_Finger1
                  {
                    OFFSET 11.0826 -0.704819 -0.198153
                    CHANNELS 3 Zrotation Xrotation Yrotation
                    End Site
                    {
                      OFFSET 6.20027 -0.397518 -0.0787166
                    }
                  }
                }
              }
            }
          }
          JOINT Bip001_R_Clavicle
          {
            OFFSET -6.06037 -0.000563197 0.00835105
            CHANNELS 3 Zrotation Xrotation Yrotation
            JOINT Bip001_R_UpperArm
            {
              OFFSET -11.5509 -0.0599978 0.00190698
              CHANNELS 3 Zrotation Xrotation Yrotation
              JOINT Bip001_R_Forearm
              {
                OFFSET -25.9523 0.0806822 -2.15589
                CHANNELS 3 Zrotation Xrotation Yrotation
                JOINT Bip001_R_Hand
                {
                  OFFSET -32.2475 0.153859 1.63989
                  CHANNELS 3 Zrotation Xrotation Yrotation
                  JOINT Bip001_R_Finger0
                  {
                    OFFSET -6.04641 -2.20976 5.90317
                    CHANNELS 3 Zrotation Xrotation Yrotation
                    End Site
                    {
                      OFFSET -4.22376 -1.43895 0.60647
                    }
                  }
                  JOINT Bip001_R_Finger1
                  {
                    OFFSET -11.0826 -0.704794 -0.198182
                    CHANNELS 3 Zrotation Xrotation Yrotation
                    End Site
                    {
                      OFFSET -6.20028 -0.397504 -0.0787333
                    }
                  }
                }
              }
            }
          }
          JOINT Bip001_Head
          {
            OFFSET 1.09673e-005 11.2744 2.05948
            CHANNELS 3 Zrotation Xrotation Yrotation
            End Site
            {
              OFFSET 2.89576e-005 20.8808 -2.77728e-005
            }
          }
        }
      }
    }
  }
}
MOTION
Frames:	6
Frame Time:	0.04
34.4671 91.5077 -30.8776 -7.12479 -7.55262 6.12235 0.0462685 3.18177 -0.0992224 17.7198 -13.3217 12.1954 -2.37559 39.8073 -7.46736 8.27516 -17.674 0.89805 2.30377 -6.21549 -1.50076 0.721502 -5.59538 0.515677 5.60835 27.6253 -0.628739 -13.2705 -11.0102 -13.0191 4.21969 -13.2862 4.28579 0.0984006 6.36369 -0.201432 0.0983982 6.36395 -0.201433 4.66067 -7.47745 -0.0345963 -26.2795 10.8517 -8.10398 -38.3765 42.7219 5.38475 15.911 0.0141491 -28.6127 9.70218 2.13614 -4.07094 0 3.18055e-015 -0 3.18055e-015 3.18056e-015 -0 7.4319 12.3709 21.095 53.6428 -46.2834 50.2043 -49.1222 3.24221 77.5321 -32.6168 -11.3889 9.60587 -4.41391e-032 3.18055e-015 7.95139e-016 -1.59028e-015 3.18056e-015 -0 -10.2585 -1.47079 3.21455 
34.4631 91.6816 -30.9753 -7.09618 -6.89512 8.1228 -0.249727 3.06444 0.534864 18.0369 -14.5325 14.1838 -0.45834 39.3747 -12.2078 8.27759 -17.3089 0.876435 2.37815 -6.18819 -1.74569 0.877344 -5.58689 0.267568 6.59921 26.557 -0.962497 -13.5971 -10.1996 -14.8278 4.20559 -13.1898 4.1846 -0.529374 6.12609 1.08542 -0.529366 6.12611 1.08541 3.31083 -7.17285 -1.3525 -25.1914 10.2304 -7.68879 -36.6344 39.0372 4.19554 13.699 -0.738832 -27.2414 10.1896 1.77555 -3.85982 -6.36111e-015 6.36111e-015 -3.18055e-015 -6.36111e-015 9.54167e-015 -6.36111e-015 6.26195 11.9216 23.6447 35.348 -34.6228 47.0084 -43.8096 -0.908835 54.7867 -33.8788 -9.71094 9.69939 -1.59028e-015 -3.18055e-015 1.59028e-015 4.41391e-032 -3.18056e-015 7.95139e-016 -9.37839 -0.804614 1.50811 
34.4612 92.1183 -30.9256 -6.50602 -6.46916 10.6415 -0.611227 3.08046 1.00274 17.6456 -15.031 12.9693 -0.910604 37.5798 -13.4705 8.11894 -16.2583 0.774283 2.36341 -6.15218 -1.84224 0.938116 -4.7683 -0.68703 6.52516 24.563 -1.36352 -13.4652 -9.18078 -15.8307 4.20198 -13.1635 4.14989 -1.2833 6.15171 2.0545 -1.28075 6.15222 2.04867 2.18295 -6.53938 -2.248 -23.6848 9.42251 -7.539 -35.0758 36.4973 3.32045 11.4345 -1.80757 -26.9883 9.41659 1.72938 -2.93062 0 3.18055e-015 -0 3.18055e-015 3.18056e-015 -0 4.37173 10.4658 24.007 42.6138 -35.7242 58.4848 -58.1351 8.03288 49.4022 -24.7238 -15.0533 7.52524 -0 0 2.38542e-015 -0 0 1.59028e-015 -8.55598 -0.438784 0.165761 
34.5078 92.6406 -30.753 -5.97252 -5.99214 13.5695 -0.898084 3.02781 1.00839 16.6846 -15.3115 12.4196 0.24209 35.3917 -16.3058 7.50336 -15.1761 0.657076 1.99519 -5.89815 -1.57114 1.28369 -3.41957 -1.71485 5.82935 21.8324 -1.18598 -13.2262 -7.81372 -17.0448 4.19653 -13.1161 4.10329 -1.85899 6.03874 2.06345 -1.85623 6.03863 2.06635 2.75953 -4.42056 -2.77032 -23.8903 7.29966 -8.21061 -34.8076 36.6148 4.3824 10.7458 -1.92832 -26.5462 7.94643 1.58014 -2.15105 3.18055e-015 6.36111e-015 -0 3.18055e-015 6.36111e-015 -3.18055e-015 6.01736 8.64038 22.6107 60.473 -43.115 73.9228 -78.4682 18.1348 63.5293 -3.87012 -24.1464 -9.7205 3.18055e-015 1.59028e-015 -1.59028e-015 -3.18055e-015 3.18056e-015 -0 -9.07269 -0.324773 0.00878478 
34.6174 93.114 -30.612 -5.71824 -6.25257 15.5406 -0.866278 2.8702 0.74182 15.6677 -14.5661 10.5398 0.516632 33.4081 -16.3543 7.94255 -13.6489 0.573611 2.34226 -6.38383 -1.83736 2.04813 -1.39383 -2.02677 4.40179 19.0181 -1.06886 -12.739 -6.21914 -17.6481 4.21613 -13.0892 3.99017 -1.77306 5.72858 1.52993 -1.77307 5.72859 1.52994 3.47572 -2.02681 -3.43639 -23.5339 4.77159 -8.74655 -38.5598 40.0437 7.54046 11.3495 -1.26173 -24.5984 6.86555 2.02323 -2.11428 6.36111e-015 -6.36111e-015 3.18055e-015 3.18055e-015 -9.54167e-015 3.18055e-015 4.90181 5.61852 19.9571 47.7581 -44.2964 64.4196 -67.2016 15.9205 56.5935 -1.11233 -20.4215 -2.15878 3.18055e-015 3.18055e-015 7.95139e-016 6.36111e-015 3.18056e-015 7.95139e-016 -8.74622 0.548828 -0.389243 
34.7867 93.552 -30.4345 -5.2822 -6.71473 15.1655 -0.71948 2.70796 0.664798 14.9764 -12.6077 12.0186 1.5113 31.4621 -17.7045 6.15617 -13.8558 0.465452 1.85556 -5.34187 -1.57315 2.3448 0.552986 -1.84584 2.6787 16.5886 -0.903992 -11.9762 -5.09818 -16.9763 4.16277 -12.9686 3.97396 -1.47512 5.40715 1.36594 -1.47288 5.40714 1.36598 3.8231 -0.627747 -4.02591 -24.0616 3.21827 -8.64413 -42.9866 44.9006 11.5189 14.3368 3.21908 -23.1036 3.33921 2.07137 -2.67217 0 0 -1.59028e-015 -3.18055e-015 0 -1.59028e-015 2.63735 3.48492 18.8873 31.2011 -41.2029 51.1212 -51.2759 7.19797 46.851 -2.17929 -15.5496 7.13633 6.36111e-015 -3.18055e-015 -1.59028e-015 9.54166e-015 -3.18056e-015 -0 -8.9332 1.15776 -0.751212 
